<svg width="160" height="160" viewBox="0 0 160 160" xmlns="http://www.w3.org/2000/svg">
  <defs>
    <radialGradient id="glow" cx="50%" cy="45%" r="65%">
      <stop offset="0%" stop-color="#ff3b4a" stop-opacity="0.9"/>
      <stop offset="60%" stop-color="#d20a2c" stop-opacity="0.8"/>
      <stop offset="100%" stop-color="#730018" stop-opacity="0.4"/>
    </radialGradient>
  </defs>
  <rect width="160" height="160" rx="32" fill="url(#glow)"/>
  <circle cx="80" cy="80" r="48" fill="none" stroke="#ffffff" stroke-width="6" opacity="0.85"/>
  <path
    d="M80 44c18.2 0 32.9 14.7 32.9 32.9 0 18.2-14.7 32.9-32.9 32.9-18.2 0-32.9-14.7-32.9-32.9 0-18.2 14.7-32.9 32.9-32.9Zm0 9.2c-13.1 0-23.7 10.6-23.7 23.7 0 7.6 3.6 14.4 9.2 18.7l-6.9 11.5 11.6-6.8c4 2.1 8.5 3.3 13.3 3.3 13.1 0 23.7-10.6 23.7-23.7S93.1 53.2 80 53.2Z"
    fill="#ffffff"
    opacity="0.9"
  />
  <text x="80" y="108" text-anchor="middle" fill="#ffffff" font-family="Inter, sans-serif" font-size="20" font-weight="600" opacity="0.85">
    Hapoel
  </text>
</svg>

